<svg width="300" height="300" viewBox="0 0 300 300" xmlns="http://www.w3.org/2000/svg">
  <defs>
    <linearGradient id="impl-grad" x1="0%" y1="0%" x2="100%" y2="100%">
      <stop offset="0%" style="stop-color:#6f42c1;stop-opacity:1" />
      <stop offset="100%" style="stop-color:#8e61d1;stop-opacity:1" />
    </linearGradient>
  </defs>
  
  <!-- Background -->
  <rect width="300" height="300" fill="#f8f9fa" rx="20"/>
  
  <!-- Main rocket/implementation symbol -->
  <g transform="translate(150,80)">
    <!-- Rocket body -->
    <ellipse cx="0" cy="50" rx="20" ry="80" fill="url(#impl-grad)"/>
    <ellipse cx="0" cy="50" rx="15" ry="70" fill="#ffffff" opacity="0.9"/>
    
    <!-- Rocket nose -->
    <path d="M-15,0 Q0,-20 15,0" fill="#6f42c1"/>
    
    <!-- Rocket fins -->
    <path d="M-20,100 L-35,120 L-20,115 Z" fill="#6f42c1" opacity="0.8"/>
    <path d="M20,100 L35,120 L20,115 Z" fill="#6f42c1" opacity="0.8"/>
    
    <!-- Window -->
    <circle cx="0" cy="30" r="8" fill="#87ceeb" opacity="0.8"/>
    <circle cx="0" cy="30" r="6" fill="#ffffff" opacity="0.6"/>
    
    <!-- Details -->
    <rect x="-12" y="60" width="24" height="3" fill="#6f42c1" opacity="0.6" rx="1"/>
    <rect x="-12" y="70" width="24" height="3" fill="#6f42c1" opacity="0.6" rx="1"/>
    <rect x="-12" y="80" width="24" height="3" fill="#6f42c1" opacity="0.6" rx="1"/>
  </g>
  
  <!-- Flame/exhaust -->
  <g transform="translate(150,215)">
    <ellipse cx="0" cy="0" rx="12" ry="20" fill="#ff6b35" opacity="0.8"/>
    <ellipse cx="0" cy="0" rx="8" ry="15" fill="#ff9500" opacity="0.8"/>
    <ellipse cx="0" cy="0" rx="4" ry="10" fill="#ffcd3c" opacity="0.8"/>
  </g>
  
  <!-- Tools around the rocket -->
  <!-- Wrench -->
  <g transform="translate(80,160) rotate(-30)">
    <rect x="0" y="0" width="30" height="8" fill="#6c757d" rx="4"/>
    <circle cx="25" cy="4" r="6" fill="none" stroke="#6c757d" stroke-width="3"/>
    <rect x="0" y="2" width="10" height="4" fill="#495057" rx="2"/>
  </g>
  
  <!-- Gear -->
  <g transform="translate(220,160)">
    <circle cx="0" cy="0" r="18" fill="#fd7e14" opacity="0.8"/>
    <path d="M-15,0 L-12,-5 L-12,5 Z M-10.6,-10.6 L-7.6,-13.6 L-13.6,-7.6 Z M0,-15 L-5,-12 L5,-12 Z M10.6,-10.6 L13.6,-7.6 L7.6,-13.6 Z M15,0 L12,5 L12,-5 Z M10.6,10.6 L7.6,13.6 L13.6,7.6 Z M0,15 L5,12 L-5,12 Z M-10.6,10.6 L-13.6,7.6 L-7.6,13.6 Z" fill="#fd7e14"/>
    <circle cx="0" cy="0" r="8" fill="#ffffff"/>
  </g>
  
  <!-- Code symbol -->
  <g transform="translate(70,230)">
    <rect x="0" y="0" width="35" height="25" fill="#007bff" rx="4" opacity="0.8"/>
    <rect x="3" y="3" width="29" height="19" fill="#ffffff" rx="2"/>
    <text x="17.5" y="15" text-anchor="middle" font-family="monospace" font-size="10" fill="#007bff">{}</text>
  </g>
  
  <!-- Chart/Analytics -->
  <g transform="translate(210,230)">
    <rect x="0" y="0" width="35" height="25" fill="#28a745" rx="4" opacity="0.8"/>
    <rect x="3" y="3" width="29" height="19" fill="#ffffff" rx="2"/>
    <!-- Bar chart -->
    <rect x="8" y="15" width="3" height="5" fill="#28a745"/>
    <rect x="13" y="12" width="3" height="8" fill="#28a745"/>
    <rect x="18" y="10" width="3" height="10" fill="#28a745"/>
    <rect x="23" y="8" width="3" height="12" fill="#28a745"/>
  </g>
  
  <!-- Documentation -->
  <g transform="translate(60,120)">
    <rect x="0" y="0" width="25" height="30" fill="#17a2b8" rx="3" opacity="0.8"/>
    <rect x="2" y="2" width="21" height="26" fill="#ffffff" rx="2"/>
    <rect x="5" y="6" width="15" height="2" fill="#17a2b8" rx="1"/>
    <rect x="5" y="10" width="12" height="2" fill="#17a2b8" rx="1"/>
    <rect x="5" y="14" width="13" height="2" fill="#17a2b8" rx="1"/>
    <rect x="5" y="18" width="10" height="2" fill="#17a2b8" rx="1"/>
  </g>
  
  <!-- Checklist -->
  <g transform="translate(225,120)">
    <rect x="0" y="0" width="25" height="30" fill="#20c997" rx="3" opacity="0.8"/>
    <rect x="2" y="2" width="21" height="26" fill="#ffffff" rx="2"/>
    <!-- Checkboxes -->
    <rect x="5" y="6" width="3" height="3" fill="none" stroke="#20c997" stroke-width="1" rx="0.5"/>
    <path d="M5.5,7.5 L6.5,8.5 L8,6.5" fill="none" stroke="#20c997" stroke-width="1"/>
    <rect x="5" y="12" width="3" height="3" fill="none" stroke="#20c997" stroke-width="1" rx="0.5"/>
    <path d="M5.5,13.5 L6.5,14.5 L8,12.5" fill="none" stroke="#20c997" stroke-width="1"/>
    <rect x="5" y="18" width="3" height="3" fill="none" stroke="#20c997" stroke-width="1" rx="0.5"/>
    
    <!-- Text lines -->
    <rect x="10" y="7" width="10" height="1" fill="#666" rx="0.5"/>
    <rect x="10" y="13" width="8" height="1" fill="#666" rx="0.5"/>
    <rect x="10" y="19" width="9" height="1" fill="#666" rx="0.5"/>
  </g>
  
  <!-- Motion lines showing implementation in action -->
  <g stroke="#6f42c1" stroke-width="2" fill="none" opacity="0.4">
    <path d="M100,50 Q120,40 140,50"/>
    <path d="M200,50 Q180,40 160,50"/>
    <path d="M100,80 Q120,70 140,80"/>
    <path d="M200,80 Q180,70 160,80"/>
  </g>
</svg>