<svg width="200" height="200" viewBox="0 0 200 200" xmlns="http://www.w3.org/2000/svg">
  <defs>
    <linearGradient id="grad1" x1="0%" y1="0%" x2="100%" y2="100%">
      <stop offset="0%" style="stop-color:#2B5CE6;stop-opacity:1" />
      <stop offset="100%" style="stop-color:#1B4EBB;stop-opacity:1" />
    </linearGradient>
  </defs>
  
  <!-- Background Circle -->
  <circle cx="100" cy="100" r="90" fill="url(#grad1)" stroke="#ffffff" stroke-width="2"/>
  
  <!-- Gear/Cog Symbol -->
  <g transform="translate(100,100)">
    <!-- Outer gear teeth -->
    <path d="M-40,0 L-35,-8 L-35,8 Z M-28.3,-28.3 L-23.3,-31.3 L-31.3,-23.3 Z M0,-40 L-8,-35 L8,-35 Z M28.3,-28.3 L31.3,-23.3 L23.3,-31.3 Z M40,0 L35,8 L35,-8 Z M28.3,28.3 L23.3,31.3 L31.3,23.3 Z M0,40 L8,35 L-8,35 Z M-28.3,28.3 L-31.3,23.3 L-23.3,31.3 Z" fill="#ffffff" opacity="0.9"/>
    
    <!-- Inner circle -->
    <circle cx="0" cy="0" r="25" fill="#ffffff" opacity="0.1"/>
    <circle cx="0" cy="0" r="15" fill="none" stroke="#ffffff" stroke-width="2" opacity="0.9"/>
    
    <!-- Standards symbol in center -->
    <g transform="translate(0,-5)">
      <!-- Document/Standards lines -->
      <rect x="-12" y="-8" width="24" height="2" fill="#ffffff" rx="1"/>
      <rect x="-12" y="-4" width="18" height="2" fill="#ffffff" rx="1"/>
      <rect x="-12" y="0" width="20" height="2" fill="#ffffff" rx="1"/>
      <rect x="-12" y="4" width="16" height="2" fill="#ffffff" rx="1"/>
      <rect x="-12" y="8" width="22" height="2" fill="#ffffff" rx="1"/>
    </g>
  </g>
  
  <!-- Corner accent elements -->
  <circle cx="30" cy="170" r="8" fill="#ffffff" opacity="0.3"/>
  <circle cx="170" cy="30" r="6" fill="#ffffff" opacity="0.3"/>
  <rect x="25" y="25" width="12" height="12" fill="none" stroke="#ffffff" stroke-width="2" opacity="0.3" rx="2"/>
  <rect x="163" y="163" width="12" height="12" fill="none" stroke="#ffffff" stroke-width="2" opacity="0.3" rx="2"/>
</svg>