<svg width="300" height="300" viewBox="0 0 300 300" xmlns="http://www.w3.org/2000/svg">
  <defs>
    <linearGradient id="standards-grad" x1="0%" y1="0%" x2="100%" y2="100%">
      <stop offset="0%" style="stop-color:#2B5CE6;stop-opacity:1" />
      <stop offset="100%" style="stop-color:#4A90E2;stop-opacity:1" />
    </linearGradient>
  </defs>
  
  <!-- Background -->
  <rect width="300" height="300" fill="#f8f9fa" rx="20"/>
  
  <!-- Main Document/Standard -->
  <g transform="translate(75,50)">
    <!-- Document background -->
    <rect x="0" y="0" width="150" height="200" fill="url(#standards-grad)" rx="8"/>
    <rect x="8" y="8" width="134" height="184" fill="#ffffff" rx="4"/>
    
    <!-- Header -->
    <rect x="20" y="25" width="110" height="6" fill="#2B5CE6" rx="3"/>
    <rect x="20" y="35" width="80" height="4" fill="#666" rx="2"/>
    
    <!-- Content lines representing standards -->
    <rect x="20" y="55" width="110" height="3" fill="#333" rx="1.5"/>
    <rect x="20" y="65" width="95" height="3" fill="#333" rx="1.5"/>
    <rect x="20" y="75" width="105" height="3" fill="#333" rx="1.5"/>
    <rect x="20" y="85" width="88" height="3" fill="#333" rx="1.5"/>
    
    <rect x="20" y="105" width="110" height="3" fill="#333" rx="1.5"/>
    <rect x="20" y="115" width="92" height="3" fill="#333" rx="1.5"/>
    <rect x="20" y="125" width="108" height="3" fill="#333" rx="1.5"/>
    
    <rect x="20" y="145" width="110" height="3" fill="#333" rx="1.5"/>
    <rect x="20" y="155" width="85" height="3" fill="#333" rx="1.5"/>
    <rect x="20" y="165" width="98" height="3" fill="#333" rx="1.5"/>
    
    <!-- Checkmarks for compliance -->
    <g fill="#28a745">
      <path d="M25,95 L28,98 L35,91 L33,89 L28,94 L27,93 Z"/>
      <path d="M25,135 L28,138 L35,131 L33,129 L28,134 L27,133 Z"/>
      <path d="M25,175 L28,178 L35,171 L33,169 L28,174 L27,173 Z"/>
    </g>
  </g>
  
  <!-- Side elements representing different standards -->
  <g transform="translate(230,80)">
    <rect x="0" y="0" width="40" height="50" fill="#28a745" rx="4" opacity="0.8"/>
    <rect x="5" y="5" width="30" height="40" fill="#ffffff" rx="2"/>
    <rect x="8" y="10" width="24" height="2" fill="#28a745" rx="1"/>
    <rect x="8" y="15" width="18" height="2" fill="#666" rx="1"/>
    <rect x="8" y="20" width="20" height="2" fill="#666" rx="1"/>
  </g>
  
  <g transform="translate(230,140)">
    <rect x="0" y="0" width="40" height="50" fill="#ffc107" rx="4" opacity="0.8"/>
    <rect x="5" y="5" width="30" height="40" fill="#ffffff" rx="2"/>
    <rect x="8" y="10" width="24" height="2" fill="#ffc107" rx="1"/>
    <rect x="8" y="15" width="16" height="2" fill="#666" rx="1"/>
    <rect x="8" y="20" width="22" height="2" fill="#666" rx="1"/>
  </g>
  
  <g transform="translate(230,200)">
    <rect x="0" y="0" width="40" height="50" fill="#dc3545" rx="4" opacity="0.8"/>
    <rect x="5" y="5" width="30" height="40" fill="#ffffff" rx="2"/>
    <rect x="8" y="10" width="24" height="2" fill="#dc3545" rx="1"/>
    <rect x="8" y="15" width="20" height="2" fill="#666" rx="1"/>
    <rect x="8" y="20" width="18" height="2" fill="#666" rx="1"/>
  </g>
  
  <!-- Connecting lines -->
  <line x1="225" y1="105" x2="240" y2="105" stroke="#2B5CE6" stroke-width="2" opacity="0.6"/>
  <line x1="225" y1="165" x2="240" y2="165" stroke="#2B5CE6" stroke-width="2" opacity="0.6"/>
  <line x1="225" y1="225" x2="240" y2="225" stroke="#2B5CE6" stroke-width="2" opacity="0.6"/>
</svg>